<mxfile host="Electron" agent="Mozilla/5.0 (X11; Linux x86_64) AppleWebKit/537.36 (KHTML, like Gecko) draw.io/28.1.2 Chrome/138.0.7204.243 Electron/37.4.0 Safari/537.36" version="28.1.2">
  <diagram name="Page-1" id="PFoPlUwvTNdfm9jOEWF-">
    <mxGraphModel dx="2012" dy="2303" grid="1" gridSize="10" guides="1" tooltips="1" connect="1" arrows="1" fold="1" page="1" pageScale="1" pageWidth="850" pageHeight="1100" math="1" shadow="0">
      <root>
        <mxCell id="0" />
        <mxCell id="1" parent="0" />
        <mxCell id="UQYdaN8NKHzeLjU3V7_b-1" value="" style="endArrow=oval;html=1;rounded=0;strokeWidth=3;endFill=0;endSize=13;" parent="1" edge="1">
          <mxGeometry width="50" height="50" relative="1" as="geometry">
            <mxPoint x="360" y="320" as="sourcePoint" />
            <mxPoint x="360" y="160" as="targetPoint" />
          </mxGeometry>
        </mxCell>
        <mxCell id="UQYdaN8NKHzeLjU3V7_b-7" value="" style="endArrow=oval;html=1;rounded=0;strokeWidth=3;endFill=0;endSize=13;" parent="1" edge="1">
          <mxGeometry width="50" height="50" relative="1" as="geometry">
            <mxPoint x="280" y="320" as="sourcePoint" />
            <mxPoint x="280" y="240" as="targetPoint" />
          </mxGeometry>
        </mxCell>
        <mxCell id="UQYdaN8NKHzeLjU3V7_b-8" value="" style="endArrow=oval;html=1;rounded=0;strokeWidth=3;endFill=0;endSize=13;" parent="1" edge="1">
          <mxGeometry width="50" height="50" relative="1" as="geometry">
            <mxPoint x="440" y="320" as="sourcePoint" />
            <mxPoint x="440" y="240" as="targetPoint" />
          </mxGeometry>
        </mxCell>
        <mxCell id="UQYdaN8NKHzeLjU3V7_b-9" value="" style="endArrow=none;html=1;rounded=0;strokeColor=#737373;" parent="1" edge="1">
          <mxGeometry width="50" height="50" relative="1" as="geometry">
            <mxPoint x="800" y="320" as="sourcePoint" />
            <mxPoint x="20" y="320" as="targetPoint" />
          </mxGeometry>
        </mxCell>
        <mxCell id="UQYdaN8NKHzeLjU3V7_b-10" value="" style="endArrow=blockThin;html=1;rounded=0;strokeWidth=3;endFill=0;endSize=13;" parent="1" edge="1">
          <mxGeometry width="50" height="50" relative="1" as="geometry">
            <mxPoint x="80" y="320" as="sourcePoint" />
            <mxPoint x="80" y="240" as="targetPoint" />
          </mxGeometry>
        </mxCell>
        <mxCell id="UQYdaN8NKHzeLjU3V7_b-11" value="&lt;font style=&quot;font-size: 16px;&quot;&gt;$$X_\text{sig}^2$$&lt;/font&gt;" style="text;html=1;align=center;verticalAlign=middle;whiteSpace=wrap;rounded=0;" parent="1" vertex="1">
          <mxGeometry x="80" y="230" width="60" height="30" as="geometry" />
        </mxCell>
        <mxCell id="UQYdaN8NKHzeLjU3V7_b-12" value="&lt;font style=&quot;font-size: 16px;&quot;&gt;$$W_0^2$$&lt;/font&gt;" style="text;html=1;align=center;verticalAlign=middle;whiteSpace=wrap;rounded=0;" parent="1" vertex="1">
          <mxGeometry x="360" y="140" width="60" height="30" as="geometry" />
        </mxCell>
        <mxCell id="UQYdaN8NKHzeLjU3V7_b-13" value="&lt;font style=&quot;font-size: 16px;&quot;&gt;$$W_{1}^2$$&lt;/font&gt;" style="text;html=1;align=center;verticalAlign=middle;whiteSpace=wrap;rounded=0;" parent="1" vertex="1">
          <mxGeometry x="440" y="230" width="60" height="30" as="geometry" />
        </mxCell>
        <mxCell id="UQYdaN8NKHzeLjU3V7_b-14" value="&lt;font style=&quot;font-size: 16px;&quot;&gt;$$W_{-1}^2$$&lt;/font&gt;" style="text;html=1;align=center;verticalAlign=middle;whiteSpace=wrap;rounded=0;" parent="1" vertex="1">
          <mxGeometry x="290" y="230" width="60" height="30" as="geometry" />
        </mxCell>
        <mxCell id="UQYdaN8NKHzeLjU3V7_b-16" value="&lt;font style=&quot;font-size: 28px;&quot;&gt;$$\ast$$&lt;/font&gt;" style="text;html=1;align=center;verticalAlign=middle;whiteSpace=wrap;rounded=0;" parent="1" vertex="1">
          <mxGeometry x="190" y="250" width="60" height="30" as="geometry" />
        </mxCell>
        <mxCell id="UQYdaN8NKHzeLjU3V7_b-17" value="" style="endArrow=blockThin;html=1;rounded=0;strokeWidth=3;endFill=1;endSize=13;fillColor=#f8cecc;strokeColor=#FF0000;" parent="1" edge="1">
          <mxGeometry width="50" height="50" relative="1" as="geometry">
            <mxPoint x="680" y="320" as="sourcePoint" />
            <mxPoint x="680" y="160" as="targetPoint" />
          </mxGeometry>
        </mxCell>
        <mxCell id="UQYdaN8NKHzeLjU3V7_b-18" value="" style="endArrow=blockThin;html=1;rounded=0;strokeWidth=3;endFill=1;endSize=13;fillColor=#f8cecc;strokeColor=#FF0000;" parent="1" edge="1">
          <mxGeometry width="50" height="50" relative="1" as="geometry">
            <mxPoint x="600" y="320" as="sourcePoint" />
            <mxPoint x="600" y="240" as="targetPoint" />
          </mxGeometry>
        </mxCell>
        <mxCell id="UQYdaN8NKHzeLjU3V7_b-19" value="" style="endArrow=blockThin;html=1;rounded=0;strokeWidth=3;endFill=1;endSize=13;fillColor=#f8cecc;strokeColor=#FF0000;" parent="1" edge="1">
          <mxGeometry width="50" height="50" relative="1" as="geometry">
            <mxPoint x="760" y="320" as="sourcePoint" />
            <mxPoint x="760" y="240" as="targetPoint" />
          </mxGeometry>
        </mxCell>
        <mxCell id="UQYdaN8NKHzeLjU3V7_b-20" value="&lt;b&gt;&lt;font style=&quot;font-size: 16px;&quot; color=&quot;#ff0000&quot;&gt;$$W_0^2X_\text{sig}^2$$&lt;/font&gt;&lt;/b&gt;" style="text;html=1;align=center;verticalAlign=middle;whiteSpace=wrap;rounded=0;" parent="1" vertex="1">
          <mxGeometry x="690" y="150" width="60" height="30" as="geometry" />
        </mxCell>
        <mxCell id="UQYdaN8NKHzeLjU3V7_b-23" value="&lt;font style=&quot;font-size: 28px;&quot;&gt;$$=$$&lt;/font&gt;" style="text;html=1;align=center;verticalAlign=middle;whiteSpace=wrap;rounded=0;" parent="1" vertex="1">
          <mxGeometry x="500" y="250" width="60" height="30" as="geometry" />
        </mxCell>
        <mxCell id="UQYdaN8NKHzeLjU3V7_b-24" value="&lt;b&gt;&lt;font style=&quot;font-size: 16px;&quot; color=&quot;#ff0000&quot;&gt;$$W_{-1}^2X_\text{sig}^2$$&lt;/font&gt;&lt;/b&gt;" style="text;html=1;align=center;verticalAlign=middle;whiteSpace=wrap;rounded=0;" parent="1" vertex="1">
          <mxGeometry x="580" y="210" width="60" height="30" as="geometry" />
        </mxCell>
        <mxCell id="UQYdaN8NKHzeLjU3V7_b-25" value="&lt;b&gt;&lt;font style=&quot;font-size: 16px;&quot; color=&quot;#ff0000&quot;&gt;$$W_{1}^2X_\text{sig}^2$$&lt;/font&gt;&lt;/b&gt;" style="text;html=1;align=center;verticalAlign=middle;whiteSpace=wrap;rounded=0;" parent="1" vertex="1">
          <mxGeometry x="730" y="210" width="60" height="30" as="geometry" />
        </mxCell>
        <mxCell id="UQYdaN8NKHzeLjU3V7_b-26" value="" style="endArrow=oval;html=1;rounded=0;strokeWidth=3;endFill=0;endSize=13;" parent="1" edge="1">
          <mxGeometry width="50" height="50" relative="1" as="geometry">
            <mxPoint x="360" y="520" as="sourcePoint" />
            <mxPoint x="360" y="360" as="targetPoint" />
          </mxGeometry>
        </mxCell>
        <mxCell id="UQYdaN8NKHzeLjU3V7_b-27" value="" style="endArrow=oval;html=1;rounded=0;strokeWidth=3;endFill=0;endSize=13;" parent="1" edge="1">
          <mxGeometry width="50" height="50" relative="1" as="geometry">
            <mxPoint x="280" y="520" as="sourcePoint" />
            <mxPoint x="280" y="440" as="targetPoint" />
          </mxGeometry>
        </mxCell>
        <mxCell id="UQYdaN8NKHzeLjU3V7_b-28" value="" style="endArrow=oval;html=1;rounded=0;strokeWidth=3;endFill=0;endSize=13;" parent="1" edge="1">
          <mxGeometry width="50" height="50" relative="1" as="geometry">
            <mxPoint x="440" y="520" as="sourcePoint" />
            <mxPoint x="440" y="440" as="targetPoint" />
          </mxGeometry>
        </mxCell>
        <mxCell id="UQYdaN8NKHzeLjU3V7_b-29" value="" style="endArrow=none;html=1;rounded=0;strokeColor=#737373;" parent="1" edge="1">
          <mxGeometry width="50" height="50" relative="1" as="geometry">
            <mxPoint x="800" y="520" as="sourcePoint" />
            <mxPoint x="20" y="520" as="targetPoint" />
          </mxGeometry>
        </mxCell>
        <mxCell id="UQYdaN8NKHzeLjU3V7_b-30" value="" style="endArrow=blockThin;html=1;rounded=0;strokeWidth=3;endFill=0;endSize=13;" parent="1" edge="1">
          <mxGeometry width="50" height="50" relative="1" as="geometry">
            <mxPoint x="80" y="520" as="sourcePoint" />
            <mxPoint x="80" y="440" as="targetPoint" />
          </mxGeometry>
        </mxCell>
        <mxCell id="UQYdaN8NKHzeLjU3V7_b-31" value="&lt;font style=&quot;font-size: 16px;&quot;&gt;$$X_n^2$$&lt;/font&gt;" style="text;html=1;align=center;verticalAlign=middle;whiteSpace=wrap;rounded=0;" parent="1" vertex="1">
          <mxGeometry x="70" y="409" width="60" height="30" as="geometry" />
        </mxCell>
        <mxCell id="UQYdaN8NKHzeLjU3V7_b-32" value="&lt;font style=&quot;font-size: 16px;&quot;&gt;$$W_0^2$$&lt;/font&gt;" style="text;html=1;align=center;verticalAlign=middle;whiteSpace=wrap;rounded=0;" parent="1" vertex="1">
          <mxGeometry x="360" y="340" width="60" height="30" as="geometry" />
        </mxCell>
        <mxCell id="UQYdaN8NKHzeLjU3V7_b-33" value="&lt;font style=&quot;font-size: 16px;&quot;&gt;$$W_{1}^2$$&lt;/font&gt;" style="text;html=1;align=center;verticalAlign=middle;whiteSpace=wrap;rounded=0;" parent="1" vertex="1">
          <mxGeometry x="432" y="416" width="60" height="30" as="geometry" />
        </mxCell>
        <mxCell id="UQYdaN8NKHzeLjU3V7_b-34" value="&lt;font style=&quot;font-size: 16px;&quot;&gt;$$W_{-1}^2$$&lt;/font&gt;" style="text;html=1;align=center;verticalAlign=middle;whiteSpace=wrap;rounded=0;" parent="1" vertex="1">
          <mxGeometry x="276" y="417" width="60" height="30" as="geometry" />
        </mxCell>
        <mxCell id="UQYdaN8NKHzeLjU3V7_b-35" value="&lt;font style=&quot;font-size: 28px;&quot;&gt;$$\ast$$&lt;/font&gt;" style="text;html=1;align=center;verticalAlign=middle;whiteSpace=wrap;rounded=0;" parent="1" vertex="1">
          <mxGeometry x="190" y="450" width="60" height="30" as="geometry" />
        </mxCell>
        <mxCell id="UQYdaN8NKHzeLjU3V7_b-36" value="" style="endArrow=blockThin;html=1;rounded=0;strokeWidth=3;endFill=1;endSize=13;strokeColor=#CC00CC;" parent="1" edge="1">
          <mxGeometry width="50" height="50" relative="1" as="geometry">
            <mxPoint x="680" y="520" as="sourcePoint" />
            <mxPoint x="680" y="360" as="targetPoint" />
          </mxGeometry>
        </mxCell>
        <mxCell id="UQYdaN8NKHzeLjU3V7_b-37" value="" style="endArrow=blockThin;html=1;rounded=0;strokeWidth=3;endFill=1;endSize=13;strokeColor=#CC00CC;" parent="1" edge="1">
          <mxGeometry width="50" height="50" relative="1" as="geometry">
            <mxPoint x="600" y="520" as="sourcePoint" />
            <mxPoint x="600" y="360" as="targetPoint" />
          </mxGeometry>
        </mxCell>
        <mxCell id="UQYdaN8NKHzeLjU3V7_b-38" value="" style="endArrow=blockThin;html=1;rounded=0;strokeWidth=3;endFill=1;endSize=13;strokeColor=#CC00CC;" parent="1" edge="1">
          <mxGeometry width="50" height="50" relative="1" as="geometry">
            <mxPoint x="760" y="520" as="sourcePoint" />
            <mxPoint x="760" y="360" as="targetPoint" />
          </mxGeometry>
        </mxCell>
        <mxCell id="UQYdaN8NKHzeLjU3V7_b-39" value="&lt;font style=&quot;font-size: 16px; color: rgb(204, 0, 204);&quot;&gt;$$X_n^2\sum_k W_k^2$$&lt;/font&gt;" style="text;html=1;align=center;verticalAlign=middle;whiteSpace=wrap;rounded=0;strokeColor=none;" parent="1" vertex="1">
          <mxGeometry x="520" y="390" width="60" height="30" as="geometry" />
        </mxCell>
        <mxCell id="UQYdaN8NKHzeLjU3V7_b-40" value="&lt;font style=&quot;font-size: 28px;&quot;&gt;$$=$$&lt;/font&gt;" style="text;html=1;align=center;verticalAlign=middle;whiteSpace=wrap;rounded=0;" parent="1" vertex="1">
          <mxGeometry x="500" y="450" width="60" height="30" as="geometry" />
        </mxCell>
        <mxCell id="UQYdaN8NKHzeLjU3V7_b-43" value="" style="endArrow=blockThin;html=1;rounded=0;strokeWidth=3;endFill=0;endSize=13;" parent="1" edge="1">
          <mxGeometry width="50" height="50" relative="1" as="geometry">
            <mxPoint x="40" y="520" as="sourcePoint" />
            <mxPoint x="40" y="440" as="targetPoint" />
          </mxGeometry>
        </mxCell>
        <mxCell id="UQYdaN8NKHzeLjU3V7_b-44" value="" style="endArrow=blockThin;html=1;rounded=0;strokeWidth=3;endFill=0;endSize=13;" parent="1" edge="1">
          <mxGeometry width="50" height="50" relative="1" as="geometry">
            <mxPoint x="120" y="520" as="sourcePoint" />
            <mxPoint x="120" y="440" as="targetPoint" />
          </mxGeometry>
        </mxCell>
        <mxCell id="UQYdaN8NKHzeLjU3V7_b-45" value="" style="endArrow=blockThin;html=1;rounded=0;strokeWidth=3;endFill=0;endSize=13;" parent="1" edge="1">
          <mxGeometry width="50" height="50" relative="1" as="geometry">
            <mxPoint x="160" y="520" as="sourcePoint" />
            <mxPoint x="160" y="440" as="targetPoint" />
          </mxGeometry>
        </mxCell>
        <mxCell id="UQYdaN8NKHzeLjU3V7_b-46" value="" style="endArrow=none;html=1;rounded=0;strokeColor=#999999;dashed=1;dashPattern=1 1;strokeWidth=2;" parent="1" edge="1">
          <mxGeometry width="50" height="50" relative="1" as="geometry">
            <mxPoint x="180" y="440" as="sourcePoint" />
            <mxPoint x="20" y="439.65999999999997" as="targetPoint" />
          </mxGeometry>
        </mxCell>
        <mxCell id="UQYdaN8NKHzeLjU3V7_b-47" value="" style="endArrow=none;html=1;rounded=0;strokeColor=#CC00CC;dashed=1;dashPattern=1 1;strokeWidth=2;" parent="1" edge="1">
          <mxGeometry width="50" height="50" relative="1" as="geometry">
            <mxPoint x="790" y="360" as="sourcePoint" />
            <mxPoint x="570" y="360" as="targetPoint" />
          </mxGeometry>
        </mxCell>
        <mxCell id="UQYdaN8NKHzeLjU3V7_b-48" value="&lt;b&gt;&lt;font style=&quot;font-size: 16px;&quot;&gt;Windowed noise Power&lt;/font&gt;&lt;/b&gt;" style="text;html=1;align=center;verticalAlign=middle;whiteSpace=wrap;rounded=0;" parent="1" vertex="1">
          <mxGeometry x="10" y="353" width="200" height="30" as="geometry" />
        </mxCell>
        <mxCell id="UQYdaN8NKHzeLjU3V7_b-49" value="&lt;b&gt;&lt;font style=&quot;font-size: 16px;&quot;&gt;Windowed Signal Power&lt;/font&gt;&lt;/b&gt;" style="text;html=1;align=center;verticalAlign=middle;whiteSpace=wrap;rounded=0;" parent="1" vertex="1">
          <mxGeometry x="10" y="153" width="200" height="30" as="geometry" />
        </mxCell>
        <mxCell id="UQYdaN8NKHzeLjU3V7_b-50" value="" style="endArrow=oval;html=1;rounded=0;strokeWidth=3;endFill=0;endSize=13;" parent="1" edge="1">
          <mxGeometry width="50" height="50" relative="1" as="geometry">
            <mxPoint x="361" y="118" as="sourcePoint" />
            <mxPoint x="361" y="-42" as="targetPoint" />
          </mxGeometry>
        </mxCell>
        <mxCell id="UQYdaN8NKHzeLjU3V7_b-51" value="" style="endArrow=oval;html=1;rounded=0;strokeWidth=3;endFill=0;endSize=13;" parent="1" edge="1">
          <mxGeometry width="50" height="50" relative="1" as="geometry">
            <mxPoint x="281" y="118" as="sourcePoint" />
            <mxPoint x="281" y="38" as="targetPoint" />
          </mxGeometry>
        </mxCell>
        <mxCell id="UQYdaN8NKHzeLjU3V7_b-52" value="" style="endArrow=oval;html=1;rounded=0;strokeWidth=3;endFill=0;endSize=13;" parent="1" edge="1">
          <mxGeometry width="50" height="50" relative="1" as="geometry">
            <mxPoint x="441" y="118" as="sourcePoint" />
            <mxPoint x="441" y="38" as="targetPoint" />
          </mxGeometry>
        </mxCell>
        <mxCell id="UQYdaN8NKHzeLjU3V7_b-54" value="" style="endArrow=blockThin;html=1;rounded=0;strokeWidth=3;endFill=0;endSize=13;" parent="1" edge="1">
          <mxGeometry width="50" height="50" relative="1" as="geometry">
            <mxPoint x="81" y="118" as="sourcePoint" />
            <mxPoint x="81" y="38" as="targetPoint" />
          </mxGeometry>
        </mxCell>
        <mxCell id="UQYdaN8NKHzeLjU3V7_b-55" value="&lt;font style=&quot;font-size: 16px;&quot;&gt;$$X_\text{sig}$$&lt;/font&gt;" style="text;html=1;align=center;verticalAlign=middle;whiteSpace=wrap;rounded=0;" parent="1" vertex="1">
          <mxGeometry x="81" y="28" width="60" height="30" as="geometry" />
        </mxCell>
        <mxCell id="UQYdaN8NKHzeLjU3V7_b-56" value="&lt;font style=&quot;font-size: 16px;&quot;&gt;$$W_0$$&lt;/font&gt;" style="text;html=1;align=center;verticalAlign=middle;whiteSpace=wrap;rounded=0;" parent="1" vertex="1">
          <mxGeometry x="361" y="-62" width="60" height="30" as="geometry" />
        </mxCell>
        <mxCell id="UQYdaN8NKHzeLjU3V7_b-57" value="&lt;font style=&quot;font-size: 16px;&quot;&gt;$$W_{1}$$&lt;/font&gt;" style="text;html=1;align=center;verticalAlign=middle;whiteSpace=wrap;rounded=0;" parent="1" vertex="1">
          <mxGeometry x="441" y="28" width="60" height="30" as="geometry" />
        </mxCell>
        <mxCell id="UQYdaN8NKHzeLjU3V7_b-58" value="&lt;font style=&quot;font-size: 16px;&quot;&gt;$$W_{-1}$$&lt;/font&gt;" style="text;html=1;align=center;verticalAlign=middle;whiteSpace=wrap;rounded=0;" parent="1" vertex="1">
          <mxGeometry x="291" y="28" width="60" height="30" as="geometry" />
        </mxCell>
        <mxCell id="UQYdaN8NKHzeLjU3V7_b-59" value="&lt;font style=&quot;font-size: 28px;&quot;&gt;$$\ast$$&lt;/font&gt;" style="text;html=1;align=center;verticalAlign=middle;whiteSpace=wrap;rounded=0;" parent="1" vertex="1">
          <mxGeometry x="191" y="48" width="60" height="30" as="geometry" />
        </mxCell>
        <mxCell id="UQYdaN8NKHzeLjU3V7_b-60" value="" style="endArrow=blockThin;html=1;rounded=0;strokeWidth=3;endFill=1;endSize=13;" parent="1" edge="1">
          <mxGeometry width="50" height="50" relative="1" as="geometry">
            <mxPoint x="681" y="118" as="sourcePoint" />
            <mxPoint x="681" y="-42" as="targetPoint" />
          </mxGeometry>
        </mxCell>
        <mxCell id="UQYdaN8NKHzeLjU3V7_b-61" value="" style="endArrow=blockThin;html=1;rounded=0;strokeWidth=3;endFill=1;endSize=13;" parent="1" edge="1">
          <mxGeometry width="50" height="50" relative="1" as="geometry">
            <mxPoint x="601" y="118" as="sourcePoint" />
            <mxPoint x="601" y="38" as="targetPoint" />
          </mxGeometry>
        </mxCell>
        <mxCell id="UQYdaN8NKHzeLjU3V7_b-62" value="" style="endArrow=blockThin;html=1;rounded=0;strokeWidth=3;endFill=1;endSize=13;" parent="1" edge="1">
          <mxGeometry width="50" height="50" relative="1" as="geometry">
            <mxPoint x="761" y="118" as="sourcePoint" />
            <mxPoint x="761" y="38" as="targetPoint" />
          </mxGeometry>
        </mxCell>
        <mxCell id="UQYdaN8NKHzeLjU3V7_b-63" value="&lt;font style=&quot;font-size: 16px;&quot;&gt;$$W_0X_\text{sig}$$&lt;/font&gt;" style="text;html=1;align=center;verticalAlign=middle;whiteSpace=wrap;rounded=0;" parent="1" vertex="1">
          <mxGeometry x="691" y="-52" width="60" height="30" as="geometry" />
        </mxCell>
        <mxCell id="UQYdaN8NKHzeLjU3V7_b-64" value="&lt;font style=&quot;font-size: 28px;&quot;&gt;$$=$$&lt;/font&gt;" style="text;html=1;align=center;verticalAlign=middle;whiteSpace=wrap;rounded=0;" parent="1" vertex="1">
          <mxGeometry x="501" y="48" width="60" height="30" as="geometry" />
        </mxCell>
        <mxCell id="UQYdaN8NKHzeLjU3V7_b-65" value="&lt;font style=&quot;font-size: 16px;&quot;&gt;$$W_{-1}X_\text{sig}$$&lt;/font&gt;" style="text;html=1;align=center;verticalAlign=middle;whiteSpace=wrap;rounded=0;" parent="1" vertex="1">
          <mxGeometry x="581" y="8" width="60" height="30" as="geometry" />
        </mxCell>
        <mxCell id="UQYdaN8NKHzeLjU3V7_b-66" value="&lt;font style=&quot;font-size: 16px;&quot;&gt;$$W_{1}X_\text{sig}$$&lt;/font&gt;" style="text;html=1;align=center;verticalAlign=middle;whiteSpace=wrap;rounded=0;" parent="1" vertex="1">
          <mxGeometry x="731" y="8" width="60" height="30" as="geometry" />
        </mxCell>
        <mxCell id="UQYdaN8NKHzeLjU3V7_b-88" value="&lt;b&gt;&lt;font style=&quot;font-size: 16px;&quot;&gt;Windowed Signal FFT&lt;/font&gt;&lt;/b&gt;" style="text;html=1;align=center;verticalAlign=middle;whiteSpace=wrap;rounded=0;" parent="1" vertex="1">
          <mxGeometry x="10" y="-50" width="200" height="30" as="geometry" />
        </mxCell>
        <mxCell id="UQYdaN8NKHzeLjU3V7_b-90" value="" style="rounded=1;whiteSpace=wrap;html=1;fillColor=none;strokeColor=#B5739D;strokeWidth=2;shadow=0;glass=0;dashed=1;" parent="1" vertex="1">
          <mxGeometry x="560" y="135" width="240" height="195" as="geometry" />
        </mxCell>
        <mxCell id="UQYdaN8NKHzeLjU3V7_b-91" value="" style="endArrow=classic;html=1;rounded=0;exitX=1;exitY=0.436;exitDx=0;exitDy=0;exitPerimeter=0;strokeColor=#B5739D;" parent="1" source="UQYdaN8NKHzeLjU3V7_b-90" edge="1">
          <mxGeometry width="50" height="50" relative="1" as="geometry">
            <mxPoint x="830" y="240" as="sourcePoint" />
            <mxPoint x="890" y="220" as="targetPoint" />
          </mxGeometry>
        </mxCell>
        <mxCell id="UQYdaN8NKHzeLjU3V7_b-92" value="&lt;font color=&quot;#b5739d&quot;&gt;&lt;b&gt;&lt;font style=&quot;font-size: 16px;&quot;&gt;$$\sum$$&lt;/font&gt;&lt;/b&gt;&lt;/font&gt;" style="text;html=1;align=center;verticalAlign=middle;whiteSpace=wrap;rounded=0;" parent="1" vertex="1">
          <mxGeometry x="820" y="186" width="60" height="30" as="geometry" />
        </mxCell>
        <mxCell id="UQYdaN8NKHzeLjU3V7_b-93" value="&lt;font size=&quot;1&quot;&gt;&lt;b style=&quot;&quot;&gt;&lt;font style=&quot;font-size: 24px; color: rgb(0, 204, 0);&quot;&gt;$$\sum_\text{nb} X_\text{w,sig}^2=X_\text{sig}^2\sum_k W_k^2$$&lt;/font&gt;&lt;/b&gt;&lt;/font&gt;" style="text;html=1;align=center;verticalAlign=middle;whiteSpace=wrap;rounded=0;" parent="1" vertex="1">
          <mxGeometry x="1010" y="210" width="60" height="30" as="geometry" />
        </mxCell>
        <mxCell id="UQYdaN8NKHzeLjU3V7_b-94" value="&lt;font size=&quot;1&quot;&gt;&lt;b style=&quot;&quot;&gt;&lt;font style=&quot;font-size: 18px; color: rgb(0, 204, 0);&quot;&gt;$$X_\text{w,sig}^2$$&lt;/font&gt;&lt;/b&gt;&lt;/font&gt;" style="text;html=1;align=center;verticalAlign=middle;whiteSpace=wrap;rounded=0;" parent="1" vertex="1">
          <mxGeometry x="580" y="140" width="60" height="30" as="geometry" />
        </mxCell>
        <mxCell id="UQYdaN8NKHzeLjU3V7_b-104" value="" style="endArrow=none;html=1;rounded=0;strokeColor=#737373;" parent="1" edge="1">
          <mxGeometry width="50" height="50" relative="1" as="geometry">
            <mxPoint x="800" y="117" as="sourcePoint" />
            <mxPoint x="20" y="117" as="targetPoint" />
          </mxGeometry>
        </mxCell>
        <mxCell id="UQYdaN8NKHzeLjU3V7_b-105" value="" style="curved=1;endArrow=classic;html=1;rounded=0;strokeWidth=4;strokeColor=#FF3399;" parent="1" edge="1">
          <mxGeometry width="50" height="50" relative="1" as="geometry">
            <mxPoint x="830" y="20" as="sourcePoint" />
            <mxPoint x="860" y="150" as="targetPoint" />
            <Array as="points">
              <mxPoint x="920" y="40" />
            </Array>
          </mxGeometry>
        </mxCell>
        <mxCell id="UQYdaN8NKHzeLjU3V7_b-106" value="" style="rounded=1;whiteSpace=wrap;html=1;fillColor=none;strokeColor=#6666FF;strokeWidth=2;shadow=0;glass=0;dashed=1;" parent="1" vertex="1">
          <mxGeometry x="561" y="343" width="240" height="195" as="geometry" />
        </mxCell>
        <mxCell id="UQYdaN8NKHzeLjU3V7_b-107" value="" style="endArrow=classic;html=1;rounded=0;exitX=1;exitY=0.436;exitDx=0;exitDy=0;exitPerimeter=0;strokeColor=#6666FF;" parent="1" edge="1">
          <mxGeometry width="50" height="50" relative="1" as="geometry">
            <mxPoint x="801" y="439" as="sourcePoint" />
            <mxPoint x="891" y="439" as="targetPoint" />
          </mxGeometry>
        </mxCell>
        <mxCell id="UQYdaN8NKHzeLjU3V7_b-108" value="&lt;font&gt;&lt;b style=&quot;&quot;&gt;&lt;font style=&quot;font-size: 16px; color: rgb(102, 102, 255);&quot;&gt;$$\sum$$&lt;/font&gt;&lt;/b&gt;&lt;/font&gt;" style="text;html=1;align=center;verticalAlign=middle;whiteSpace=wrap;rounded=0;" parent="1" vertex="1">
          <mxGeometry x="821" y="405" width="60" height="30" as="geometry" />
        </mxCell>
        <mxCell id="UQYdaN8NKHzeLjU3V7_b-109" value="&lt;font size=&quot;1&quot;&gt;&lt;b style=&quot;&quot;&gt;&lt;font style=&quot;font-size: 24px; color: rgb(102, 102, 255);&quot;&gt;$$\sum_{N} X_\text{w,n}^2=X_\text{n}^2N\sum_k W_k^2$$&lt;/font&gt;&lt;/b&gt;&lt;/font&gt;" style="text;html=1;align=center;verticalAlign=middle;whiteSpace=wrap;rounded=0;" parent="1" vertex="1">
          <mxGeometry x="1014" y="433" width="60" height="30" as="geometry" />
        </mxCell>
        <mxCell id="UQYdaN8NKHzeLjU3V7_b-110" value="" style="endArrow=none;html=1;rounded=0;strokeColor=#737373;" parent="1" edge="1">
          <mxGeometry width="50" height="50" relative="1" as="geometry">
            <mxPoint x="801" y="562" as="sourcePoint" />
            <mxPoint x="21" y="562" as="targetPoint" />
          </mxGeometry>
        </mxCell>
        <mxCell id="UQYdaN8NKHzeLjU3V7_b-111" value="" style="endArrow=oval;html=1;rounded=0;strokeWidth=3;endFill=0;endSize=13;" parent="1" edge="1">
          <mxGeometry width="50" height="50" relative="1" as="geometry">
            <mxPoint x="361" y="762" as="sourcePoint" />
            <mxPoint x="361" y="602" as="targetPoint" />
          </mxGeometry>
        </mxCell>
        <mxCell id="UQYdaN8NKHzeLjU3V7_b-112" value="" style="endArrow=oval;html=1;rounded=0;strokeWidth=3;endFill=0;endSize=13;" parent="1" edge="1">
          <mxGeometry width="50" height="50" relative="1" as="geometry">
            <mxPoint x="281" y="762" as="sourcePoint" />
            <mxPoint x="281" y="682" as="targetPoint" />
          </mxGeometry>
        </mxCell>
        <mxCell id="UQYdaN8NKHzeLjU3V7_b-113" value="" style="endArrow=oval;html=1;rounded=0;strokeWidth=3;endFill=0;endSize=13;" parent="1" edge="1">
          <mxGeometry width="50" height="50" relative="1" as="geometry">
            <mxPoint x="441" y="762" as="sourcePoint" />
            <mxPoint x="441" y="682" as="targetPoint" />
          </mxGeometry>
        </mxCell>
        <mxCell id="UQYdaN8NKHzeLjU3V7_b-114" value="" style="endArrow=none;html=1;rounded=0;strokeColor=#737373;" parent="1" edge="1">
          <mxGeometry width="50" height="50" relative="1" as="geometry">
            <mxPoint x="801" y="762" as="sourcePoint" />
            <mxPoint x="21" y="762" as="targetPoint" />
          </mxGeometry>
        </mxCell>
        <mxCell id="UQYdaN8NKHzeLjU3V7_b-115" value="" style="endArrow=blockThin;html=1;rounded=0;strokeWidth=3;endFill=0;endSize=13;" parent="1" edge="1">
          <mxGeometry width="50" height="50" relative="1" as="geometry">
            <mxPoint x="81" y="762" as="sourcePoint" />
            <mxPoint x="81" y="682" as="targetPoint" />
          </mxGeometry>
        </mxCell>
        <mxCell id="UQYdaN8NKHzeLjU3V7_b-116" value="&lt;font style=&quot;font-size: 16px;&quot;&gt;$$X_n$$&lt;/font&gt;" style="text;html=1;align=center;verticalAlign=middle;whiteSpace=wrap;rounded=0;" parent="1" vertex="1">
          <mxGeometry x="71" y="651" width="60" height="30" as="geometry" />
        </mxCell>
        <mxCell id="UQYdaN8NKHzeLjU3V7_b-117" value="&lt;font style=&quot;font-size: 16px;&quot;&gt;$$W_0$$&lt;/font&gt;" style="text;html=1;align=center;verticalAlign=middle;whiteSpace=wrap;rounded=0;" parent="1" vertex="1">
          <mxGeometry x="361" y="582" width="60" height="30" as="geometry" />
        </mxCell>
        <mxCell id="UQYdaN8NKHzeLjU3V7_b-118" value="&lt;font style=&quot;font-size: 16px;&quot;&gt;$$W_{1}$$&lt;/font&gt;" style="text;html=1;align=center;verticalAlign=middle;whiteSpace=wrap;rounded=0;" parent="1" vertex="1">
          <mxGeometry x="433" y="658" width="60" height="30" as="geometry" />
        </mxCell>
        <mxCell id="UQYdaN8NKHzeLjU3V7_b-119" value="&lt;font style=&quot;font-size: 16px;&quot;&gt;$$W_{-1}$$&lt;/font&gt;" style="text;html=1;align=center;verticalAlign=middle;whiteSpace=wrap;rounded=0;" parent="1" vertex="1">
          <mxGeometry x="277" y="659" width="60" height="30" as="geometry" />
        </mxCell>
        <mxCell id="UQYdaN8NKHzeLjU3V7_b-120" value="&lt;font style=&quot;font-size: 28px;&quot;&gt;$$\ast$$&lt;/font&gt;" style="text;html=1;align=center;verticalAlign=middle;whiteSpace=wrap;rounded=0;" parent="1" vertex="1">
          <mxGeometry x="191" y="692" width="60" height="30" as="geometry" />
        </mxCell>
        <mxCell id="UQYdaN8NKHzeLjU3V7_b-121" value="" style="endArrow=blockThin;html=1;rounded=0;strokeWidth=3;endFill=1;endSize=13;fillColor=#f8cecc;strokeColor=#000000;" parent="1" edge="1">
          <mxGeometry width="50" height="50" relative="1" as="geometry">
            <mxPoint x="681" y="762" as="sourcePoint" />
            <mxPoint x="681" y="602" as="targetPoint" />
          </mxGeometry>
        </mxCell>
        <mxCell id="UQYdaN8NKHzeLjU3V7_b-122" value="" style="endArrow=blockThin;html=1;rounded=0;strokeWidth=3;endFill=1;endSize=13;fillColor=#f8cecc;strokeColor=#000000;" parent="1" edge="1">
          <mxGeometry width="50" height="50" relative="1" as="geometry">
            <mxPoint x="601" y="762" as="sourcePoint" />
            <mxPoint x="601" y="602" as="targetPoint" />
          </mxGeometry>
        </mxCell>
        <mxCell id="UQYdaN8NKHzeLjU3V7_b-123" value="" style="endArrow=blockThin;html=1;rounded=0;strokeWidth=3;endFill=1;endSize=13;fillColor=#f8cecc;strokeColor=#000000;" parent="1" edge="1">
          <mxGeometry width="50" height="50" relative="1" as="geometry">
            <mxPoint x="761" y="762" as="sourcePoint" />
            <mxPoint x="761" y="602" as="targetPoint" />
          </mxGeometry>
        </mxCell>
        <mxCell id="UQYdaN8NKHzeLjU3V7_b-124" value="&lt;b&gt;&lt;font style=&quot;font-size: 16px;&quot;&gt;$$X_n\sum_k W_k$$&lt;/font&gt;&lt;/b&gt;" style="text;html=1;align=center;verticalAlign=middle;whiteSpace=wrap;rounded=0;strokeColor=none;" parent="1" vertex="1">
          <mxGeometry x="520" y="628" width="60" height="30" as="geometry" />
        </mxCell>
        <mxCell id="UQYdaN8NKHzeLjU3V7_b-125" value="&lt;font style=&quot;font-size: 28px;&quot;&gt;$$=$$&lt;/font&gt;" style="text;html=1;align=center;verticalAlign=middle;whiteSpace=wrap;rounded=0;" parent="1" vertex="1">
          <mxGeometry x="501" y="692" width="60" height="30" as="geometry" />
        </mxCell>
        <mxCell id="UQYdaN8NKHzeLjU3V7_b-126" value="" style="endArrow=blockThin;html=1;rounded=0;strokeWidth=3;endFill=0;endSize=13;" parent="1" edge="1">
          <mxGeometry width="50" height="50" relative="1" as="geometry">
            <mxPoint x="41" y="762" as="sourcePoint" />
            <mxPoint x="41" y="682" as="targetPoint" />
          </mxGeometry>
        </mxCell>
        <mxCell id="UQYdaN8NKHzeLjU3V7_b-127" value="" style="endArrow=blockThin;html=1;rounded=0;strokeWidth=3;endFill=0;endSize=13;" parent="1" edge="1">
          <mxGeometry width="50" height="50" relative="1" as="geometry">
            <mxPoint x="121" y="762" as="sourcePoint" />
            <mxPoint x="121" y="682" as="targetPoint" />
          </mxGeometry>
        </mxCell>
        <mxCell id="UQYdaN8NKHzeLjU3V7_b-128" value="" style="endArrow=blockThin;html=1;rounded=0;strokeWidth=3;endFill=0;endSize=13;" parent="1" edge="1">
          <mxGeometry width="50" height="50" relative="1" as="geometry">
            <mxPoint x="161" y="762" as="sourcePoint" />
            <mxPoint x="161" y="682" as="targetPoint" />
          </mxGeometry>
        </mxCell>
        <mxCell id="UQYdaN8NKHzeLjU3V7_b-129" value="" style="endArrow=none;html=1;rounded=0;strokeColor=#999999;dashed=1;dashPattern=1 1;strokeWidth=2;" parent="1" edge="1">
          <mxGeometry width="50" height="50" relative="1" as="geometry">
            <mxPoint x="181" y="682" as="sourcePoint" />
            <mxPoint x="21" y="681.66" as="targetPoint" />
          </mxGeometry>
        </mxCell>
        <mxCell id="UQYdaN8NKHzeLjU3V7_b-130" value="" style="endArrow=none;html=1;rounded=0;strokeColor=#000000;dashed=1;dashPattern=1 1;strokeWidth=2;" parent="1" edge="1">
          <mxGeometry width="50" height="50" relative="1" as="geometry">
            <mxPoint x="791" y="602" as="sourcePoint" />
            <mxPoint x="571" y="602" as="targetPoint" />
          </mxGeometry>
        </mxCell>
        <mxCell id="UQYdaN8NKHzeLjU3V7_b-131" value="&lt;b&gt;&lt;font style=&quot;font-size: 16px;&quot;&gt;Windowed noise FFT&lt;/font&gt;&lt;/b&gt;" style="text;html=1;align=center;verticalAlign=middle;whiteSpace=wrap;rounded=0;" parent="1" vertex="1">
          <mxGeometry x="10" y="593" width="200" height="30" as="geometry" />
        </mxCell>
        <mxCell id="UQYdaN8NKHzeLjU3V7_b-133" value="&lt;b&gt;&lt;font style=&quot;font-size: 16px;&quot;&gt;$$X_\text{w,n}$$&lt;/font&gt;&lt;/b&gt;" style="text;html=1;align=center;verticalAlign=middle;whiteSpace=wrap;rounded=0;strokeColor=none;" parent="1" vertex="1">
          <mxGeometry x="691" y="600" width="60" height="30" as="geometry" />
        </mxCell>
        <mxCell id="UQYdaN8NKHzeLjU3V7_b-136" value="" style="endArrow=none;html=1;rounded=0;strokeColor=#FF0000;strokeWidth=3;dashed=1;textOpacity=10;" parent="1" edge="1">
          <mxGeometry width="50" height="50" relative="1" as="geometry">
            <mxPoint x="29" y="750" as="sourcePoint" />
            <mxPoint x="789" y="630" as="targetPoint" />
          </mxGeometry>
        </mxCell>
        <mxCell id="UQYdaN8NKHzeLjU3V7_b-137" value="" style="endArrow=none;html=1;rounded=0;strokeColor=#FF0000;strokeWidth=3;dashed=1;textOpacity=10;" parent="1" edge="1">
          <mxGeometry width="50" height="50" relative="1" as="geometry">
            <mxPoint x="29" y="630" as="sourcePoint" />
            <mxPoint x="789" y="750" as="targetPoint" />
          </mxGeometry>
        </mxCell>
        <mxCell id="YRJLhdCqh53D51CDbVX3-1" value="&lt;font color=&quot;#ff3333&quot;&gt;&lt;span style=&quot;font-size: 24px;&quot;&gt;&lt;b&gt;!Not Applicable to&amp;nbsp;Noise Analysis&lt;/b&gt;&lt;/span&gt;&lt;/font&gt;" style="text;html=1;align=center;verticalAlign=middle;whiteSpace=wrap;rounded=0;" parent="1" vertex="1">
          <mxGeometry x="800" y="680" width="390" height="30" as="geometry" />
        </mxCell>
        <mxCell id="dmYP3rn0yG5QsxGB06Sn-1" value="&lt;font size=&quot;1&quot;&gt;&lt;b style=&quot;&quot;&gt;&lt;font style=&quot;font-size: 24px; color: rgb(102, 102, 255);&quot;&gt;$$X_\text{w,n}^2$$&lt;/font&gt;&lt;/b&gt;&lt;/font&gt;" style="text;html=1;align=center;verticalAlign=middle;whiteSpace=wrap;rounded=0;" parent="1" vertex="1">
          <mxGeometry x="602" y="344" width="60" height="30" as="geometry" />
        </mxCell>
      </root>
    </mxGraphModel>
  </diagram>
</mxfile>
